<svg height="453pt" viewBox="0 -1 453.50326 453" width="453pt" xmlns="http://www.w3.org/2000/svg"><path d="m270.699219 164.164062c-1.949219 23.128907-26.046875 26.777344-26.046875 26.777344 20.691406.972656 25.847656 28.117188 25.847656 28.117188.441406-19.351563 26.644531-28.402344 26.644531-28.402344-19.628906-1.175781-26.445312-26.492188-26.445312-26.492188zm0 0" fill="#d7e057"/><path d="m297.324219 187.660156c-17.210938-1.027344-23.664063-24.046875-23.726563-24.277344-.378906-1.40625-1.703125-2.316406-3.167968-2.207031-1.449219.132813-2.597657 1.285157-2.71875 2.734375-1.71875 20.429688-22.625 23.925782-23.507813 24.066406-1.527344.230469-2.625 1.578126-2.546875 3.121094.082031 1.539063 1.316406 2.765625 2.855469 2.839844 18.058593.851562 23 25.4375 23.046875 25.6875.277344 1.421875 1.519531 2.433594 2.945312 2.433594.085938 0 .167969-.003906.253906-.011719 1.527344-.128906 2.714844-1.386719 2.75-2.917969.386719-17.015625 24.378907-25.554687 24.621094-25.636718 1.351563-.472657 2.183594-1.828126 1.988282-3.246094-.199219-1.417969-1.367188-2.5-2.792969-2.585938zm-27.132813 20.691406c-2.710937-6.257812-7.417968-13.8125-15.175781-17.75 5.863281-2.808593 12.816406-7.828124 16.402344-16.542968 3.101562 6.140625 8.402343 13.757812 16.667969 17.441406-6.011719 3.277344-13.839844 8.808594-17.894532 16.851562zm0 0" fill="#3a312a"/><path d="m227.304688 198.125c-1.378907 16.359375-18.429688 18.941406-18.429688 18.941406 14.636719.6875 18.285156 19.890625 18.285156 19.890625.3125-13.691406 18.84375-20.09375 18.84375-20.09375-13.878906-.832031-18.699218-18.738281-18.699218-18.738281zm0 0" fill="#d7e057"/><path d="m246.183594 213.867188c-11.53125-.691407-15.941406-16.371094-15.984375-16.53125-.382813-1.402344-1.722657-2.328126-3.164063-2.199219-1.453125.128906-2.601562 1.28125-2.722656 2.734375-1.15625 13.742187-15.292969 16.132812-15.882812 16.226562-1.527344.230469-2.625 1.582032-2.546876 3.125.078126 1.539063 1.3125 2.765625 2.855469 2.839844 12.070313.570312 15.445313 17.289062 15.476563 17.453125.269531 1.425781 1.519531 2.441406 2.945312 2.441406.082032 0 .167969-.003906.25-.011719 1.53125-.125 2.71875-1.386718 2.753906-2.921874.257813-11.417969 16.660157-17.269532 16.824219-17.324219 1.351563-.46875 2.183594-1.824219 1.992188-3.242188-.199219-1.421875-1.367188-2.503906-2.796875-2.589843zm-19.167969 13.589843c-1.847656-3.769531-4.679687-7.894531-8.894531-10.558593 3.710937-2.082032 7.394531-5.257813 9.742187-9.832032 2.117188 3.746094 5.308594 7.90625 9.882813 10.445313-3.699219 2.203125-7.980469 5.480469-10.730469 9.945312zm0 0" fill="#3a312a"/><path d="m227.304688 144.808594c-1.378907 16.359375-18.429688 18.941406-18.429688 18.941406 14.636719.6875 18.285156 19.890625 18.285156 19.890625.3125-13.691406 18.84375-20.089844 18.84375-20.089844-13.878906-.832031-18.699218-18.742187-18.699218-18.742187zm0 0" fill="#d7e057"/><path d="m246.183594 160.554688c-11.53125-.691407-15.941406-16.371094-15.984375-16.53125-.382813-1.40625-1.722657-2.332032-3.164063-2.203126-1.453125.128907-2.601562 1.28125-2.722656 2.734376-1.15625 13.742187-15.292969 16.132812-15.882812 16.226562-1.527344.230469-2.625 1.582031-2.546876 3.121094.078126 1.539062 1.3125 2.769531 2.855469 2.84375 12.070313.566406 15.445313 17.285156 15.476563 17.449218.269531 1.429688 1.519531 2.441407 2.945312 2.441407.082032 0 .167969-.003907.25-.007813 1.53125-.128906 2.71875-1.390625 2.753906-2.921875.257813-11.421875 16.660157-17.269531 16.824219-17.324219 1.351563-.46875 2.183594-1.828124 1.992188-3.246093-.199219-1.414063-1.367188-2.496094-2.796875-2.582031zm-19.167969 13.589843c-1.847656-3.769531-4.679687-7.894531-8.894531-10.5625 3.710937-2.082031 7.394531-5.257812 9.742187-9.832031 2.117188 3.746094 5.308594 7.910156 9.882813 10.449219-3.699219 2.203125-7.980469 5.480469-10.730469 9.945312zm0 0" fill="#3a312a"/><path d="m359.121094 395.136719c-27.179688-5.511719-65.195313-13.9375-92.699219-25.632813-157.148437-66.824218-133.066406-183.355468-103.507813-291.089844 7.03125-25.632812-3.914062-52.804687-26.78125-66.351562l-.972656-.574219c-24.964844-14.789062-57.246094-9.4375-75.472656 13.128907-4.085938 5.058593-7.980469 10.328124-11.714844 15.765624l-15.769531 26.128907c-3.035156 5.777343-5.902344 11.707031-8.550781 17.820312-46.746094 107.78125-12.316406 234.59375 82.34375 304.175781 78.039062 57.367188 175.308594 63.425782 255.359375 27.476563 9.785156-4.394531 8.273437-18.71875-2.234375-20.847656zm0 0" fill="#f16c7a"/><g fill="#3a312a"><path d="m370.824219 404.320312c-.683594-6.136718-5.042969-10.898437-11.105469-12.128906-26.476562-5.367187-64.835938-13.84375-92.125-25.449218-69.742188-29.65625-108.992188-71.527344-119.996094-128.015626-9.792968-50.261718 3.625-106.363281 18.207032-159.519531 7.371093-26.871093-4.203126-55.542969-28.144532-69.726562l-.972656-.574219c-26.285156-15.574219-60.386719-9.628906-79.335938 13.828125-3.980468 4.925781-7.964843 10.292969-11.851562 15.945313-.9375 1.367187-.589844 3.234374.773438 4.171874 1.371093.941407 3.234374.589844 4.171874-.773437 3.796876-5.523437 7.695313-10.765625 11.578126-15.574219 17.082031-21.15625 47.871093-26.49999975 71.609374-12.433594l.96875.574219c21.625 12.808594 32.074219 38.707031 25.417969 62.976563-14.769531 53.84375-28.351562 110.71875-18.3125 162.253906 11.417969 58.589844 51.824219 101.894531 123.539063 132.390625 27.792968 11.816406 66.542968 20.386719 93.28125 25.808594 4.199218.847656 6.027344 4.125 6.332031 6.910156.316406 2.824219-.761719 6.476563-4.726563 8.257813-39.765624 17.855468-83.664062 25.121093-126.925781 21.003906-45.019531-4.28125-88.394531-20.933594-125.433593-48.160156-45.25-33.261719-78.304688-81.605469-93.078126-136.128907-14.7812495-54.546875-10.621093-112.945312 11.710938-164.4375 2.507812-5.78125 5.351562-11.707031 8.457031-17.613281.773438-1.46875.207031-3.28125-1.261719-4.050781-1.464843-.773438-3.277343-.207031-4.046874 1.257812-3.175782 6.039063-6.085938 12.101563-8.652344 18.023438-22.871094 52.730469-27.132813 112.535156-12 168.390625 15.125 55.828125 48.976562 105.332031 95.320312 139.394531 37.910156 27.871094 82.316406 44.917969 128.417969 49.300781 8.0625.765625 16.140625 1.148438 24.21875 1.148438 36.296875 0 72.425781-7.699219 105.726563-22.652344 5.691406-2.558594 8.925781-8.207031 8.238281-14.398438zm0 0"/><path d="m153.925781 114.375c-44.535156-16.425781-92.664062-20.214844-139.195312-10.960938-1.625.324219-2.679688 1.902344-2.359375 3.527344.324218 1.625 1.90625 2.6875 3.527344 2.359375 45.445312-9.039062 92.457031-5.335937 135.953124 10.707031.339844.125.691407.183594 1.039063.183594 1.21875 0 2.367187-.75 2.8125-1.960937.574219-1.558594-.222656-3.28125-1.777344-3.855469zm0 0"/><path d="m141.363281 203.238281c-46.925781-1.058593-93.195312 10.710938-133.746093 33.988281-1.4375.824219-1.933594 2.660157-1.105469 4.09375.554687.964844 1.5625 1.507813 2.601562 1.507813.507813 0 1.023438-.128906 1.492188-.398437 39.601562-22.734376 84.777343-34.203126 130.625-33.195313 1.597656.082031 3.03125-1.277344 3.066406-2.933594.039063-1.652343-1.277344-3.027343-2.933594-3.0625zm0 0"/><path d="m172.945312 297.738281c-.636718-1.527343-2.394531-2.246093-3.925781-1.605469-14.742187 6.175782-29.015625 13.796876-42.421875 22.652344-1.382812.914063-1.761718 2.773438-.851562 4.15625.578125.871094 1.53125 1.34375 2.507812 1.34375.566406 0 1.140625-.15625 1.648438-.492187 13.09375-8.648438 27.035156-16.09375 41.4375-22.128907 1.527344-.640624 2.246094-2.398437 1.605468-3.925781zm0 0"/><path d="m101.03125 342.011719c-1.105469-1.234375-3-1.339844-4.234375-.234375-7.300781 6.535156-14.316406 13.589844-20.855469 20.972656-1.097656 1.242188-.984375 3.136719.253906 4.238281.574219.503907 1.285157.753907 1.988282.753907.828125 0 1.65625-.34375 2.246094-1.011719 6.386718-7.210938 13.238281-14.097657 20.367187-20.480469 1.234375-1.105469 1.34375-3.003906.234375-4.238281zm0 0"/><path d="m254.425781 361.09375c-1.085937-1.246094-2.984375-1.378906-4.230469-.289062-22.511718 19.640624-41.28125 42.828124-55.78125 68.921874-.804687 1.445313-.28125 3.273438 1.167969 4.078126.457031.253906.957031.375 1.453125.375 1.054688 0 2.078125-.554688 2.625-1.542969 14.160156-25.480469 32.488282-48.128907 54.480469-67.3125 1.25-1.085938 1.375-2.980469.285156-4.230469zm0 0"/></g><path d="m433.8125 337.742188c-2.957031-7.992188-23.179688.410156-45.171875 18.773437s-37.425781 39.730469-34.46875 47.726563c2.953125 7.996093 23.179687-.410157 45.171875-18.773438s37.421875-39.730469 34.46875-47.726562zm0 0" fill="#d7e057"/><path d="m436.625 336.699219c-.867188-2.339844-2.671875-3.9375-5.21875-4.617188-10.195312-2.707031-30.4375 10.226563-44.6875 22.128907-20.097656 16.777343-39.316406 40.375-35.363281 51.066406.867187 2.34375 2.667969 3.941406 5.21875 4.621094.925781.246093 1.9375.363281 3.019531.363281 10.796875 0 28.714844-11.671875 41.667969-22.492188 20.09375-16.773437 39.316406-40.371093 35.363281-51.070312zm-39.203125 46.46875c-18.523437 15.464843-34.089844 22.328125-39.300781 20.933593-.820313-.21875-1.011719-.566406-1.132813-.902343-1.929687-5.214844 9.910157-24.625 33.574219-44.382813 16.960938-14.164062 31.433594-21.109375 37.765625-21.109375.582031 0 1.09375.054688 1.535156.175781.824219.21875 1.011719.5625 1.136719.898438 1.921875 5.21875-9.914062 24.625-33.578125 44.386719zm0 0" fill="#3a312a"/><path d="m403.015625 408.765625c-26.574219-10.703125-48.40625-12.472656-48.757813-3.957031-.351562 8.515625 20.910157 24.097656 47.484376 34.796875 26.578124 10.703125 48.40625 12.476562 48.757812 3.960937s-20.90625-24.097656-47.484375-34.800781zm0 0" fill="#d7e057"/><path d="m404.136719 405.980469c-17.226563-6.933594-40.488281-13.011719-49.332031-7.296875-2.214844 1.429687-3.441407 3.503906-3.546876 6-.46875 11.394531 25.082032 27.929687 49.363282 37.710937 12.4375 5.003907 28.011718 9.5625 39.042968 9.5625 4.25 0 7.828126-.675781 10.289063-2.265625 2.214844-1.429687 3.441406-3.503906 3.542969-6 .472656-11.394531-25.078125-27.933594-49.359375-37.710937zm42.5625 38.667969c-4.546875 2.9375-21.453125 1.191406-43.835938-7.824219-28.597656-11.515625-45.839843-26.339844-45.609375-31.894531.015625-.355469.089844-.746094.804688-1.207032 1.316406-.851562 3.679687-1.308594 6.914062-1.308594 7.910156 0 21.039063 2.734376 36.921875 9.132813 28.597657 11.515625 45.835938 26.335937 45.605469 31.890625-.011719.363281-.085938.75-.800781 1.210938zm0 0" fill="#3a312a"/><path d="m169.199219 302.59375c-10.21875 4.398438-20.179688 9.5-29.742188 15.238281 19.320313 23.882813 48.203125 45.359375 90.023438 63.28125 5.5-6.019531 11.296875-11.78125 17.398437-17.28125-34-16.859375-59.800781-37.160156-77.679687-61.238281zm0 0" fill="#d34e5c"/><path d="m121.417969 110.972656c-8.140625 31.378906-14.898438 63.179688-16.019531 94 10.878906-1.28125 21.839843-1.878906 32.859374-1.757812-.140624-27.5 4.5625-55.921875 11.101563-84.082032-9.179687-3.28125-18.5-6-27.941406-8.160156zm0 0" fill="#d34e5c"/><path d="m356.160156 414.953125c-3.101562-3.539063-4.902344-6.921875-4.902344-9.960937-.71875-2.277344-.480468-5.097657.582032-8.300782-26.242188-5.4375-61.039063-13.558594-86.601563-24.417968-4.300781-1.839844-8.460937-3.71875-12.539062-5.640626-6.058594 5.378907-11.839844 11.019532-17.320313 16.921876 26.980469 10.617187 62.160156 18.398437 87.738282 23.578124 8.523437 1.742188 11.121093 11.441407 6.621093 17.421876 8.921875-2.679688 17.742188-5.882813 26.421875-9.601563zm0 0" fill="#d34e5c"/><path d="m134.597656 14.652344-.957031-.578125c-8.921875-5.28125-18.820313-7.820313-28.621094-7.820313-10.902343 0-21.640625 3.140625-30.761719 9.179688 8.582032.78125 17.101563 3.441406 24.902344 8.058594l.980469.582031c22.859375 13.539062 33.796875 40.699219 26.777344 66.339843-1.339844 4.898438-2.679688 9.800782-3.980469 14.738282 9.382812 2.160156 18.660156 4.859375 27.800781 8.101562 2.878907-11.960937 6.0625-23.859375 9.28125-35.640625 6.660157-24.261719-3.800781-50.160156-25.421875-62.960937zm0 0" fill="#d34e5c"/><path d="m141.699219 239.875c-1.941407-10.042969-3-20.28125-3.320313-30.660156-11.101562-.121094-22.160156.5-33.101562 1.816406-.457032 36.300781 7.363281 71.082031 30.480468 102.023438 9.621094-5.800782 19.601563-10.960938 29.882813-15.441407-11.839844-17.320312-19.800781-36.519531-23.941406-57.738281zm0 0" fill="#d34e5c"/></svg>